<?xml version="1.0" ?><!DOCTYPE svg  PUBLIC '-//W3C//DTD SVG 1.1//EN'  'http://www.w3.org/Graphics/SVG/1.1/DTD/svg11.dtd'><svg height="32px" style="enable-background:new 0 0 32 32;" version="1.1" viewBox="0 0 32 32" width="32px" xml:space="preserve" xmlns="http://www.w3.org/2000/svg" xmlns:xlink="http://www.w3.org/1999/xlink"><g id="_x34__audio_rewind"><path d="M26.844,5.141c-0.508-0.21-1.094-0.094-1.482,0.296l-8.722,8.719V6.399c0-0.551-0.331-1.047-0.84-1.258   c-0.509-0.211-1.094-0.094-1.483,0.295l-9.601,9.602C4.459,15.293,4.316,15.64,4.316,16c0,0.361,0.144,0.708,0.399,0.963   l9.601,9.602c0.261,0.26,0.609,0.398,0.962,0.398c0.175,0,0.352-0.032,0.521-0.104c0.509-0.21,0.84-0.707,0.84-1.258v-7.759   l8.722,8.722c0.26,0.26,0.607,0.398,0.961,0.398c0.176,0,0.354-0.032,0.521-0.104c0.51-0.21,0.84-0.707,0.84-1.258V6.398   C27.684,5.848,27.354,5.352,26.844,5.141z"/></g></svg>